<svg xmlns="http://www.w3.org/2000/svg" version="1.1" xmlns:xlink="http://www.w3.org/1999/xlink" xmlns:svgjs="http://svgjs.dev/svgjs" width="1500" height="424" viewBox="0 0 1500 424"><g transform="matrix(1,0,0,1,-0.9090909090909918,-1.1570349079007087)"><svg viewBox="0 0 396 112" data-background-color="#ffffff" preserveAspectRatio="xMidYMid meet" height="424" width="1500" xmlns="http://www.w3.org/2000/svg" xmlns:xlink="http://www.w3.org/1999/xlink"><g id="tight-bounds" transform="matrix(1,0,0,1,0.2400000000000091,0.30563186246433816)"><svg viewBox="0 0 395.52 111.3887362750713" height="111.3887362750713" width="395.52"><g><svg viewBox="0 0 397.4975999999999 111.94567995644664" height="111.3887362750713" width="395.52"><g><rect width="397.4975999999999" height="2.875395043568351" x="0" y="39.411910964534016" fill="#c2043d" opacity="1" stroke-width="0" stroke="transparent" fill-opacity="1" class="rect-yte-0" data-fill-palette-color="primary" rx="1%" id="yte-0" data-palette-color="#c2043d"></rect></g><g transform="matrix(1,0,0,1,0.9887999999999693,0)"><svg viewBox="0 0 395.52 31.88469880859592" height="31.88469880859592" width="395.52"><g id="textblocktransform"><svg viewBox="0 0 395.52 31.88469880859592" height="31.88469880859592" width="395.52" id="textblock"><g><svg viewBox="0 0 395.52 31.88469880859592" height="31.88469880859592" width="395.52"><g transform="matrix(1,0,0,1,0,0)"><svg width="395.52" viewBox="4.5 -35.6 449.01 36.2" height="31.88469880859592" data-palette-color="#c2043d"><path d="M9 0L4.5 0 4.5-35 11.15-35 20.85-12.85 30.4-35 37.2-35 37.2 0 32.45 0 32.45-28.95 23.1-7.9 18.4-7.9 9-28.95 9 0ZM58.4 0.6L58.4 0.6Q52.35 0.6 48.9-3 45.45-6.6 45.45-13.3L45.45-13.3 45.45-35 50.2-35 50.2-14.05Q50.2-9.05 52.25-6.3 54.3-3.55 58.4-3.55L58.4-3.55Q62.65-3.55 64.75-6.23 66.85-8.9 66.85-14.05L66.85-14.05 66.85-35 71.45-35 71.45-13.5Q71.45-9.1 69.82-5.93 68.2-2.75 65.27-1.07 62.35 0.6 58.4 0.6ZM88.4 0.6L88.4 0.6Q84.75 0.6 81.75-0.38 78.75-1.35 76.7-2.95L76.7-2.95 79.1-6.95Q80.9-5.45 83.15-4.5 85.4-3.55 88.4-3.55L88.4-3.55Q92-3.55 94.1-5.05 96.2-6.55 96.2-9.1L96.2-9.1Q96.2-10.55 95.6-11.68 95-12.8 93.27-13.88 91.55-14.95 88.2-16.2L88.2-16.2Q84.6-17.6 82.45-19.03 80.3-20.45 79.37-22.28 78.45-24.1 78.45-26.6L78.45-26.6Q78.45-29.1 79.82-31.13 81.2-33.15 83.87-34.38 86.55-35.6 90.35-35.6L90.35-35.6Q93.45-35.6 95.92-34.98 98.4-34.35 100.75-33.2L100.75-33.2 99-29.15Q97.3-30.15 95.02-30.83 92.75-31.5 90.25-31.5L90.25-31.5Q86.95-31.5 85.05-30.2 83.15-28.9 83.15-26.85L83.15-26.85Q83.15-25.55 83.7-24.55 84.25-23.55 85.87-22.6 87.5-21.65 90.75-20.45L90.75-20.45Q94.65-19 96.92-17.4 99.2-15.8 100.15-13.93 101.1-12.05 101.1-9.65L101.1-9.65Q101.1-6.4 99.47-4.1 97.85-1.8 94.97-0.6 92.1 0.6 88.4 0.6ZM112.84 0L108.09 0 108.09-35 112.84-35 112.84 0ZM135.29 0.6L135.29 0.6Q130.74 0.6 127.24-1.58 123.74-3.75 121.79-7.78 119.84-11.8 119.84-17.35L119.84-17.35Q119.84-22.7 121.82-26.83 123.79-30.95 127.42-33.27 131.04-35.6 135.89-35.6L135.89-35.6Q138.39-35.6 140.44-35.13 142.49-34.65 144.29-33.8L144.29-33.8 142.84-29.8Q141.29-30.55 139.67-31 138.04-31.45 135.84-31.45L135.84-31.45Q132.64-31.45 130.12-29.8 127.59-28.15 126.14-25.05 124.69-21.95 124.69-17.55L124.69-17.55Q124.69-13.35 126.12-10.2 127.54-7.05 130.07-5.3 132.59-3.55 135.84-3.55L135.84-3.55Q138.29-3.55 140.09-4.15 141.89-4.75 143.59-5.7L143.59-5.7 145.04-1.75Q143.19-0.75 140.82-0.08 138.44 0.6 135.29 0.6ZM179.94-1.25L175.59 0.5 171.69-9.5 155.49-9.5 151.59 0.4 147.54-1.25 161.24-35 166.44-35 179.94-1.25ZM163.59-30.3L156.99-13.5 170.14-13.5 163.59-30.3ZM205.74 0L184.94 0 184.94-35 189.69-35 189.69-4.25 205.74-4.25 205.74 0ZM229.98 0L225.48 0 225.48-35 232.13-35 241.83-12.85 251.38-35 258.18-35 258.18 0 253.43 0 253.43-28.95 244.08-7.9 239.38-7.9 229.98-28.95 229.98 0ZM288.18 0L267.18 0 267.18-35 288.18-35 288.18-30.9 271.93-30.9 271.93-20.25 285.93-20.25 285.93-16.25 271.93-16.25 271.93-4.1 288.18-4.1 288.18 0ZM315.73 0L294.93 0 294.93-35 299.68-35 299.68-4.25 315.73-4.25 315.73 0ZM332.97 0.6L332.97 0.6Q329.07 0.6 326.02-0.83 322.97-2.25 320.85-4.73 318.72-7.2 317.6-10.5 316.47-13.8 316.47-17.55L316.47-17.55Q316.47-22.7 318.45-26.78 320.42-30.85 324.12-33.23 327.82-35.6 332.97-35.6L332.97-35.6Q336.82-35.6 339.9-34.2 342.97-32.8 345.12-30.3 347.27-27.8 348.4-24.55 349.52-21.3 349.52-17.55L349.52-17.55Q349.52-13.8 348.4-10.5 347.27-7.2 345.12-4.73 342.97-2.25 339.92-0.83 336.87 0.6 332.97 0.6ZM332.97-3.5L332.97-3.5Q336.82-3.5 339.42-5.35 342.02-7.2 343.35-10.38 344.67-13.55 344.67-17.55L344.67-17.55Q344.67-20.25 343.87-22.75 343.07-25.25 341.57-27.23 340.07-29.2 337.9-30.35 335.72-31.5 332.97-31.5L332.97-31.5Q329.32-31.5 326.7-29.65 324.07-27.8 322.7-24.65 321.32-21.5 321.32-17.55L321.32-17.55Q321.32-14.85 322.1-12.33 322.87-9.8 324.37-7.8 325.87-5.8 328.05-4.65 330.22-3.5 332.97-3.5ZM365.72 0.4L365.72 0.4Q362.87 0.4 360.75 0.25 358.62 0.1 356.52-0.1L356.52-0.1 356.52-34.9Q358.87-35.15 361.12-35.27 363.37-35.4 366.27-35.4L366.27-35.4Q370.77-35.4 374.05-34 377.32-32.6 379.45-30.15 381.57-27.7 382.6-24.48 383.62-21.25 383.62-17.55L383.62-17.55Q383.62-13.9 382.57-10.65 381.52-7.4 379.35-4.93 377.17-2.45 373.8-1.03 370.42 0.4 365.72 0.4ZM365.87-3.75L365.87-3.75Q370.37-3.75 373.22-5.5 376.07-7.25 377.42-10.38 378.77-13.5 378.77-17.55L378.77-17.55Q378.77-21.15 377.42-24.3 376.07-27.45 373.27-29.38 370.47-31.3 366.12-31.3L366.12-31.3Q364.67-31.3 363.47-31.23 362.27-31.15 361.27-31.05L361.27-31.05 361.27-4Q362.32-3.85 363.47-3.8 364.62-3.75 365.87-3.75ZM395.37 0L390.62 0 390.62-35 395.37-35 395.37 0ZM425.37 0L404.37 0 404.37-35 425.37-35 425.37-30.9 409.12-30.9 409.12-20.25 423.12-20.25 423.12-16.25 409.12-16.25 409.12-4.1 425.37-4.1 425.37 0ZM440.81 0.6L440.81 0.6Q437.16 0.6 434.16-0.38 431.16-1.35 429.11-2.95L429.11-2.95 431.51-6.95Q433.31-5.45 435.56-4.5 437.81-3.55 440.81-3.55L440.81-3.55Q444.41-3.55 446.51-5.05 448.61-6.55 448.61-9.1L448.61-9.1Q448.61-10.55 448.01-11.68 447.41-12.8 445.69-13.88 443.96-14.95 440.61-16.2L440.61-16.2Q437.01-17.6 434.86-19.03 432.71-20.45 431.79-22.28 430.86-24.1 430.86-26.6L430.86-26.6Q430.86-29.1 432.24-31.13 433.61-33.15 436.29-34.38 438.96-35.6 442.76-35.6L442.76-35.6Q445.86-35.6 448.34-34.98 450.81-34.35 453.16-33.2L453.16-33.2 451.41-29.15Q449.71-30.15 447.44-30.83 445.16-31.5 442.66-31.5L442.66-31.5Q439.36-31.5 437.46-30.2 435.56-28.9 435.56-26.85L435.56-26.85Q435.56-25.55 436.11-24.55 436.66-23.55 438.29-22.6 439.91-21.65 443.16-20.45L443.16-20.45Q447.06-19 449.34-17.4 451.61-15.8 452.56-13.93 453.51-12.05 453.51-9.65L453.51-9.65Q453.51-6.4 451.89-4.1 450.26-1.8 447.39-0.6 444.51 0.6 440.81 0.6Z" opacity="1" transform="matrix(1,0,0,1,0,0)" fill="#c2043d" class="wordmark-text-0" data-fill-palette-color="primary" id="text-0"></path></svg></g></svg></g></svg></g></svg></g><g transform="matrix(1,0,0,1,149.69917357511153,49.814518164040464)"><svg viewBox="0 0 98.09925284977687 62.13116179240618" height="62.13116179240618" width="98.09925284977687"><g><svg xmlns="http://www.w3.org/2000/svg" xmlns:xlink="http://www.w3.org/1999/xlink" version="1.1" x="0" y="0" viewBox="0 18.332 100 63.335" enable-background="new 0 0 100 100" xml:space="preserve" height="62.13116179240618" width="98.09925284977687" class="icon-icon-0" data-fill-palette-color="accent" id="icon-0"><g fill="#000000" data-fill-palette-color="accent"><path d="M0 18.332V81.667H100V18.332zM13.969 77.54C13.969 78.496 13.194 79.271 12.235 79.271H3.923C2.961 79.271 2.183 78.496 2.183 77.54V20.55H10.367V59.643H13.969zM27.967 77.54C27.967 78.496 27.189 79.271 26.23 79.271H17.918C16.96 79.271 16.178 78.496 16.178 77.54V59.643H19.95V20.55H24.197V59.643H27.966zM41.965 77.54C41.965 78.496 41.187 79.271 40.228 79.271H31.916C30.955 79.271 30.176 78.496 30.176 77.54V59.643H33.78V20.55H41.964zM55.961 77.54C55.961 78.496 55.184 79.271 54.227 79.271H45.914A1.734 1.734 0 0 1 44.177 77.54V20.55H52.306V59.643H55.963zM69.959 77.54C69.959 78.496 69.182 79.271 68.223 79.271H59.91A1.734 1.734 0 0 1 58.171 77.54V59.643H61.884V20.55H66.108V59.643H69.961zM83.954 77.54C83.954 78.496 83.176 79.271 82.221 79.271H73.907A1.737 1.737 0 0 1 72.168 77.54V59.643H75.692V20.55H79.916V59.643H83.956zM97.952 77.54C97.952 78.496 97.174 79.271 96.215 79.271H87.902A1.736 1.736 0 0 1 86.164 77.54V59.643H89.495V20.55H97.952z" fill="#000000" data-fill-palette-color="accent"></path></g></svg></g></svg></g><g></g></svg></g><defs></defs></svg><rect width="395.52" height="111.3887362750713" fill="none" stroke="none" visibility="hidden"></rect></g></svg></g></svg>